<svg xmlns="http://www.w3.org/2000/svg" version="1.1" xmlns:xlink="http://www.w3.org/1999/xlink" xmlns:svgjs="http://svgjs.dev/svgjs" width="2000" height="2000" viewBox="0 0 2000 2000"><g transform="matrix(1,0,0,1,-0.28443113772425477,-0.28443113772459583)"><svg viewBox="0 0 334 334" data-background-color="#331e6d" preserveAspectRatio="xMidYMid meet" height="2000" width="2000" xmlns="http://www.w3.org/2000/svg" xmlns:xlink="http://www.w3.org/1999/xlink"><g id="tight-bounds" transform="matrix(1,0,0,1,0.04749999999998522,0.04750000000001364)"><svg viewBox="0 0 333.90454557049503 333.90454557049503" height="333.90454557049503" width="333.90454557049503"><g><svg></svg></g><g><svg viewBox="0 0 333.90454557049503 333.90454557049503" height="333.90454557049503" width="333.90454557049503"><g><path d="M0 166.952c0-92.205 74.747-166.952 166.952-166.952 92.205 0 166.952 74.747 166.953 166.952 0 92.205-74.747 166.952-166.953 166.953-92.205 0-166.952-74.747-166.952-166.953zM166.952 316.63c82.665 0 149.677-67.013 149.678-149.678 0-82.665-67.013-149.677-149.678-149.677-82.665 0-149.677 67.013-149.677 149.677 0 82.665 67.013 149.677 149.677 149.678z" data-fill-palette-color="tertiary" fill="#ffcf31" stroke="transparent"></path><ellipse rx="160.27418187383762" ry="160.27418187383762" cx="166.95227278524752" cy="166.95227278524752" fill="#ffcf31" stroke="transparent" stroke-width="0" fill-opacity="1" data-fill-palette-color="tertiary"></ellipse></g><g transform="matrix(1,0,0,1,96.98496251486318,71.17305217166896)"><svg viewBox="0 0 139.93462054076866 191.55844122715712" height="191.55844122715712" width="139.93462054076866"><g><svg viewBox="0 0 139.93462054076866 191.55844122715712" height="191.55844122715712" width="139.93462054076866"><g><svg viewBox="0 0 139.93462054076866 191.55844122715712" height="191.55844122715712" width="139.93462054076866"><g><svg viewBox="0 0 139.93462054076866 191.55844122715712" height="191.55844122715712" width="139.93462054076866"><g id="textblocktransform"><svg viewBox="0 0 139.93462054076866 191.55844122715712" height="191.55844122715712" width="139.93462054076866" id="textblock"><g><svg viewBox="0 0 139.93462054076866 191.55844122715712" height="191.55844122715712" width="139.93462054076866"><g transform="matrix(1,0,0,1,0,0)"><svg width="139.93462054076866" viewBox="3.55 -36.55 26.7 36.55" height="191.55844122715712" data-palette-color="#331e6d"><path d="M5.65 0L5.65 0Q4.9 0 4.23-0.38 3.55-0.75 3.55-1.5L3.55-1.5 3.55-34.5Q3.55-35.65 4.23-36.1 4.9-36.55 5.65-36.55L5.65-36.55Q6.45-36.55 7.03-36.25 7.6-35.95 8.08-35.38 8.55-34.8 9-33.9L9-33.9 16.9-18.85 24.8-33.9Q25.3-34.8 25.78-35.38 26.25-35.95 26.83-36.25 27.4-36.55 28.15-36.55L28.15-36.55Q29-36.55 29.63-36.1 30.25-35.65 30.25-34.5L30.25-34.5 30.25-1.5Q30.25-0.75 29.6-0.38 28.95 0 28.15 0L28.15 0Q27.35 0 26.7-0.38 26.05-0.75 26.05-1.5L26.05-1.5 26.05-27.75 18.45-13.55Q18.1-12.95 17.7-12.68 17.3-12.4 16.85-12.4L16.85-12.4Q16.5-12.4 16.07-12.65 15.65-12.9 15.3-13.55L15.3-13.55 7.75-27.95 7.75-1.5Q7.75-0.75 7.1-0.38 6.45 0 5.65 0Z" opacity="1" transform="matrix(1,0,0,1,0,0)" fill="#331e6d" class="undefined-text-0" data-fill-palette-color="quaternary" id="text-0"></path></svg></g></svg></g></svg></g></svg></g><g></g></svg></g></svg></g></svg></g></svg></g><defs></defs></svg><rect width="333.90454557049503" height="333.90454557049503" fill="none" stroke="none" visibility="hidden"></rect></g></svg></g></svg>